<mxfile host="app.diagrams.net" modified="2021-03-07T06:10:56.648Z" agent="5.0 (Windows NT 10.0; Win64; x64) AppleWebKit/537.36 (KHTML, like Gecko) Chrome/89.0.4389.82 Safari/537.36" etag="YHw-NLCEVIxrIQcU4zf6" version="14.4.4" type="github">
  <diagram id="ftKHDjkeVkuY_PgphZ6S" name="Page-1">
    <mxGraphModel dx="1038" dy="548" grid="1" gridSize="10" guides="1" tooltips="1" connect="1" arrows="1" fold="1" page="1" pageScale="1" pageWidth="827" pageHeight="1169" math="0" shadow="0">
      <root>
        <mxCell id="0" />
        <mxCell id="1" parent="0" />
        <mxCell id="ZLnotI8Yxob7CxgMWHyF-26" value="" style="edgeStyle=orthogonalEdgeStyle;rounded=0;orthogonalLoop=1;jettySize=auto;html=1;" edge="1" parent="1" source="ZLnotI8Yxob7CxgMWHyF-4" target="ZLnotI8Yxob7CxgMWHyF-7">
          <mxGeometry relative="1" as="geometry" />
        </mxCell>
        <mxCell id="ZLnotI8Yxob7CxgMWHyF-4" value="IndexController" style="rounded=1;whiteSpace=wrap;html=1;fillColor=#dae8fc;strokeColor=#6c8ebf;" vertex="1" parent="1">
          <mxGeometry x="200" y="300" width="120" height="60" as="geometry" />
        </mxCell>
        <mxCell id="ZLnotI8Yxob7CxgMWHyF-18" value="" style="edgeStyle=orthogonalEdgeStyle;rounded=0;orthogonalLoop=1;jettySize=auto;html=1;" edge="1" parent="1" source="ZLnotI8Yxob7CxgMWHyF-5" target="ZLnotI8Yxob7CxgMWHyF-7">
          <mxGeometry relative="1" as="geometry" />
        </mxCell>
        <mxCell id="ZLnotI8Yxob7CxgMWHyF-5" value="IndexService" style="rounded=1;whiteSpace=wrap;html=1;fillColor=#d5e8d4;strokeColor=#82b366;" vertex="1" parent="1">
          <mxGeometry y="470" width="120" height="60" as="geometry" />
        </mxCell>
        <mxCell id="ZLnotI8Yxob7CxgMWHyF-25" value="" style="edgeStyle=orthogonalEdgeStyle;rounded=0;orthogonalLoop=1;jettySize=auto;html=1;" edge="1" parent="1" source="ZLnotI8Yxob7CxgMWHyF-6" target="ZLnotI8Yxob7CxgMWHyF-4">
          <mxGeometry relative="1" as="geometry" />
        </mxCell>
        <mxCell id="ZLnotI8Yxob7CxgMWHyF-6" value="JavaScript" style="rounded=1;whiteSpace=wrap;html=1;fillColor=#fff2cc;strokeColor=#d6b656;" vertex="1" parent="1">
          <mxGeometry x="200" y="160" width="120" height="60" as="geometry" />
        </mxCell>
        <mxCell id="ZLnotI8Yxob7CxgMWHyF-34" value="" style="edgeStyle=orthogonalEdgeStyle;rounded=0;orthogonalLoop=1;jettySize=auto;html=1;" edge="1" parent="1" source="ZLnotI8Yxob7CxgMWHyF-7" target="ZLnotI8Yxob7CxgMWHyF-29">
          <mxGeometry relative="1" as="geometry" />
        </mxCell>
        <mxCell id="ZLnotI8Yxob7CxgMWHyF-7" value="IndexServiceImpl" style="rounded=1;whiteSpace=wrap;html=1;fillColor=#dae8fc;strokeColor=#6c8ebf;" vertex="1" parent="1">
          <mxGeometry x="200" y="470" width="120" height="60" as="geometry" />
        </mxCell>
        <mxCell id="ZLnotI8Yxob7CxgMWHyF-8" value="&lt;b&gt;Java Interface&lt;/b&gt;" style="rounded=1;whiteSpace=wrap;html=1;fillColor=#d5e8d4;strokeColor=#82b366;" vertex="1" parent="1">
          <mxGeometry width="90" height="30" as="geometry" />
        </mxCell>
        <mxCell id="ZLnotI8Yxob7CxgMWHyF-20" style="edgeStyle=orthogonalEdgeStyle;rounded=0;orthogonalLoop=1;jettySize=auto;html=1;exitX=0;exitY=0.5;exitDx=0;exitDy=0;entryX=1;entryY=0.5;entryDx=0;entryDy=0;" edge="1" parent="1" source="ZLnotI8Yxob7CxgMWHyF-11" target="ZLnotI8Yxob7CxgMWHyF-6">
          <mxGeometry relative="1" as="geometry" />
        </mxCell>
        <mxCell id="ZLnotI8Yxob7CxgMWHyF-11" value="&lt;pre style=&quot;background-color: #2b2b2b ; color: #a9b7c6 ; font-family: &amp;#34;jetbrains mono&amp;#34; , monospace ; font-size: 9.8pt&quot;&gt;axios({&lt;br&gt;    &lt;span style=&quot;color: #9876aa&quot;&gt;method&lt;/span&gt;: &lt;span style=&quot;color: #6a8759&quot;&gt;&#39;get&#39;&lt;/span&gt;&lt;span style=&quot;color: #cc7832&quot;&gt;,&lt;br&gt;&lt;/span&gt;&lt;span style=&quot;color: #cc7832&quot;&gt;    &lt;/span&gt;&lt;span style=&quot;color: #9876aa&quot;&gt;url&lt;/span&gt;: &lt;span style=&quot;color: #6a8759&quot;&gt;&quot;/init&quot;&lt;/span&gt;&lt;span style=&quot;color: #cc7832&quot;&gt;,&lt;br&gt;&lt;/span&gt;})&lt;br&gt;    .&lt;span style=&quot;color: #ffc66d&quot;&gt;then&lt;/span&gt;(&lt;span style=&quot;color: #cc7832&quot;&gt;function &lt;/span&gt;(response){&lt;br&gt;        &lt;span style=&quot;color: #9876aa ; font-weight: bold ; font-style: italic&quot;&gt;console&lt;/span&gt;.&lt;span style=&quot;color: #ffc66d&quot;&gt;log&lt;/span&gt;(&lt;span style=&quot;color: #6a8759&quot;&gt;&quot;# init success : &quot; &lt;/span&gt;+ response)&lt;span style=&quot;color: #cc7832&quot;&gt;;&lt;br&gt;&lt;/span&gt;&lt;span style=&quot;color: #cc7832&quot;&gt;    &lt;/span&gt;})&lt;br&gt;    .&lt;span style=&quot;color: #ffc66d&quot;&gt;catch&lt;/span&gt;(&lt;span style=&quot;color: #cc7832&quot;&gt;function &lt;/span&gt;(error){&lt;br&gt;        &lt;span style=&quot;color: #9876aa ; font-weight: bold ; font-style: italic&quot;&gt;console&lt;/span&gt;.&lt;span style=&quot;color: #ffc66d&quot;&gt;log&lt;/span&gt;(&lt;span style=&quot;color: #6a8759&quot;&gt;&quot;# init error : &quot; &lt;/span&gt;+ error)&lt;span style=&quot;color: #cc7832&quot;&gt;;&lt;br&gt;&lt;div&gt;&lt;span style=&quot;font-size: 9.8pt ; white-space: normal&quot;&gt;    &lt;/span&gt;&lt;span style=&quot;color: rgb(169 , 183 , 198) ; font-size: 9.8pt ; white-space: normal&quot;&gt;})&lt;/span&gt;&lt;/div&gt;&lt;/span&gt;&lt;/pre&gt;" style="rounded=0;whiteSpace=wrap;html=1;align=left;fillColor=#000000;" vertex="1" parent="1">
          <mxGeometry x="360" y="110" width="340" height="160" as="geometry" />
        </mxCell>
        <mxCell id="ZLnotI8Yxob7CxgMWHyF-17" value="" style="edgeStyle=orthogonalEdgeStyle;rounded=0;orthogonalLoop=1;jettySize=auto;html=1;" edge="1" parent="1" source="ZLnotI8Yxob7CxgMWHyF-16" target="ZLnotI8Yxob7CxgMWHyF-4">
          <mxGeometry relative="1" as="geometry" />
        </mxCell>
        <mxCell id="ZLnotI8Yxob7CxgMWHyF-16" value="&lt;pre style=&quot;background-color: #2b2b2b ; color: #a9b7c6 ; font-family: &amp;#34;jetbrains mono&amp;#34; , monospace ; font-size: 9.8pt&quot;&gt;&lt;span style=&quot;color: #808080&quot;&gt;//&lt;/span&gt;&lt;span style=&quot;color: #808080 ; font-family: &amp;#34;courier new&amp;#34; , monospace&quot;&gt;메인페이지&lt;br&gt;&lt;/span&gt;&lt;span style=&quot;color: #bbb529&quot;&gt;@RequestMapping&lt;/span&gt;(&lt;span style=&quot;color: #6a8759&quot;&gt;&quot;/&quot;&lt;/span&gt;)&lt;br&gt;&lt;span style=&quot;color: #cc7832&quot;&gt;public &lt;/span&gt;String &lt;span style=&quot;color: #ffc66d&quot;&gt;index&lt;/span&gt;(Model model) {&lt;br&gt;    model.addAttribute(&lt;span style=&quot;color: #6a8759&quot;&gt;&quot;display&quot;&lt;/span&gt;&lt;span style=&quot;color: #cc7832&quot;&gt;, &lt;/span&gt;&lt;span style=&quot;color: #6a8759&quot;&gt;&quot;page.jsp&quot;&lt;/span&gt;)&lt;span style=&quot;color: #cc7832&quot;&gt;;&lt;br&gt;&lt;/span&gt;&lt;span style=&quot;color: #cc7832&quot;&gt;    return &lt;/span&gt;&lt;span style=&quot;color: #6a8759&quot;&gt;&quot;index&quot;&lt;/span&gt;&lt;span style=&quot;color: #cc7832&quot;&gt;;&lt;br&gt;&lt;/span&gt;}&lt;/pre&gt;" style="rounded=0;whiteSpace=wrap;html=1;fillColor=#000000;align=left;" vertex="1" parent="1">
          <mxGeometry x="360" y="280" width="300" height="100" as="geometry" />
        </mxCell>
        <mxCell id="ZLnotI8Yxob7CxgMWHyF-24" value="" style="edgeStyle=orthogonalEdgeStyle;rounded=0;orthogonalLoop=1;jettySize=auto;html=1;" edge="1" parent="1" source="ZLnotI8Yxob7CxgMWHyF-21" target="ZLnotI8Yxob7CxgMWHyF-7">
          <mxGeometry relative="1" as="geometry" />
        </mxCell>
        <mxCell id="ZLnotI8Yxob7CxgMWHyF-21" value="&lt;pre style=&quot;background-color: #2b2b2b ; color: #a9b7c6 ; font-family: &amp;#34;jetbrains mono&amp;#34; , monospace ; font-size: 9.8pt&quot;&gt;&lt;pre style=&quot;font-family: &amp;#34;jetbrains mono&amp;#34; , monospace ; font-size: 9.8pt&quot;&gt;&lt;span style=&quot;color: #bbb529&quot;&gt;@Service&lt;br&gt;&lt;/span&gt;&lt;span style=&quot;color: #bbb529&quot;&gt;@AllArgsConstructor &lt;/span&gt;&lt;span style=&quot;color: #808080&quot;&gt;// &lt;/span&gt;&lt;span style=&quot;color: #808080 ; font-family: &amp;#34;courier new&amp;#34; , monospace&quot;&gt;모든 필드값을 파라이터로 받는 생성자 입력&lt;/span&gt;&lt;span style=&quot;color: #808080&quot;&gt;.&lt;br&gt;&lt;/span&gt;&lt;span style=&quot;color: #cc7832&quot;&gt;public class &lt;/span&gt;IndexServiceImpl &lt;span style=&quot;color: #cc7832&quot;&gt;implements &lt;/span&gt;IndexService {&lt;br&gt;    &lt;br&gt;    &lt;span style=&quot;color: #cc7832&quot;&gt;private &lt;/span&gt;IndexMapper &lt;span style=&quot;color: #9876aa&quot;&gt;indexMapper&lt;/span&gt;&lt;span style=&quot;color: #cc7832&quot;&gt;;&lt;br&gt;&lt;/span&gt;&lt;span style=&quot;color: #cc7832&quot;&gt;&lt;br&gt;&lt;/span&gt;&lt;span style=&quot;color: #cc7832&quot;&gt;    &lt;/span&gt;&lt;span style=&quot;color: #bbb529&quot;&gt;@Override&lt;br&gt;&lt;/span&gt;&lt;span style=&quot;color: #bbb529&quot;&gt;    &lt;/span&gt;&lt;span style=&quot;color: #cc7832&quot;&gt;public void &lt;/span&gt;&lt;span style=&quot;color: #ffc66d&quot;&gt;initiateServer&lt;/span&gt;() {&lt;br&gt;        &lt;br&gt;        &lt;span style=&quot;color: #cc7832&quot;&gt;int &lt;/span&gt;su = &lt;span style=&quot;color: #9876aa&quot;&gt;indexMapper&lt;/span&gt;.initiateServer()&lt;span style=&quot;color: #cc7832&quot;&gt;;&lt;br&gt;&lt;/span&gt;&lt;span style=&quot;color: #cc7832&quot;&gt;&lt;br&gt;&lt;/span&gt;&lt;span style=&quot;color: #cc7832&quot;&gt;        &lt;/span&gt;System.&lt;span style=&quot;color: #9876aa ; font-style: italic&quot;&gt;out&lt;/span&gt;.println(&lt;span style=&quot;color: #6a8759&quot;&gt;&quot;su : &quot; &lt;/span&gt;+ su)&lt;span style=&quot;color: #cc7832&quot;&gt;;&lt;br&gt;&lt;/span&gt;&lt;span style=&quot;color: #cc7832&quot;&gt;    &lt;/span&gt;}&lt;br&gt;}&lt;br&gt;&lt;/pre&gt;&lt;/pre&gt;" style="rounded=0;whiteSpace=wrap;html=1;fillColor=#000000;align=left;" vertex="1" parent="1">
          <mxGeometry x="360" y="390" width="430" height="220" as="geometry" />
        </mxCell>
        <mxCell id="ZLnotI8Yxob7CxgMWHyF-28" value="" style="edgeStyle=orthogonalEdgeStyle;rounded=0;orthogonalLoop=1;jettySize=auto;html=1;" edge="1" parent="1" source="ZLnotI8Yxob7CxgMWHyF-27" target="ZLnotI8Yxob7CxgMWHyF-6">
          <mxGeometry relative="1" as="geometry" />
        </mxCell>
        <mxCell id="ZLnotI8Yxob7CxgMWHyF-27" value="JSP" style="rounded=1;whiteSpace=wrap;html=1;fillColor=#f8cecc;strokeColor=#b85450;" vertex="1" parent="1">
          <mxGeometry x="200" y="10" width="120" height="60" as="geometry" />
        </mxCell>
        <mxCell id="ZLnotI8Yxob7CxgMWHyF-41" value="" style="edgeStyle=orthogonalEdgeStyle;rounded=0;orthogonalLoop=1;jettySize=auto;html=1;" edge="1" parent="1" source="ZLnotI8Yxob7CxgMWHyF-29" target="ZLnotI8Yxob7CxgMWHyF-35">
          <mxGeometry relative="1" as="geometry" />
        </mxCell>
        <mxCell id="ZLnotI8Yxob7CxgMWHyF-29" value="IndexMapper" style="rounded=1;whiteSpace=wrap;html=1;fillColor=#dae8fc;strokeColor=#6c8ebf;" vertex="1" parent="1">
          <mxGeometry x="200" y="640" width="120" height="60" as="geometry" />
        </mxCell>
        <mxCell id="ZLnotI8Yxob7CxgMWHyF-30" value="&lt;b&gt;Java Class&lt;/b&gt;" style="rounded=1;whiteSpace=wrap;html=1;fillColor=#dae8fc;strokeColor=#6c8ebf;" vertex="1" parent="1">
          <mxGeometry y="30" width="90" height="30" as="geometry" />
        </mxCell>
        <mxCell id="ZLnotI8Yxob7CxgMWHyF-33" value="" style="edgeStyle=orthogonalEdgeStyle;rounded=0;orthogonalLoop=1;jettySize=auto;html=1;" edge="1" parent="1" source="ZLnotI8Yxob7CxgMWHyF-32" target="ZLnotI8Yxob7CxgMWHyF-29">
          <mxGeometry relative="1" as="geometry" />
        </mxCell>
        <mxCell id="ZLnotI8Yxob7CxgMWHyF-32" value="&lt;pre style=&quot;background-color: #2b2b2b ; color: #a9b7c6 ; font-family: &amp;#34;jetbrains mono&amp;#34; , monospace ; font-size: 9.8pt&quot;&gt;&lt;span style=&quot;color: #cc7832&quot;&gt;public interface &lt;/span&gt;IndexMapper {&lt;br&gt;&lt;br&gt;    &lt;span style=&quot;color: #cc7832&quot;&gt;public int &lt;/span&gt;&lt;span style=&quot;color: #ffc66d&quot;&gt;initiateServer&lt;/span&gt;()&lt;span style=&quot;color: #cc7832&quot;&gt;;&lt;br&gt;&lt;/span&gt;}&lt;/pre&gt;" style="rounded=0;whiteSpace=wrap;html=1;fillColor=#000000;align=left;" vertex="1" parent="1">
          <mxGeometry x="360" y="635" width="215" height="70" as="geometry" />
        </mxCell>
        <mxCell id="ZLnotI8Yxob7CxgMWHyF-35" value="IndexMapper" style="rounded=1;whiteSpace=wrap;html=1;fillColor=#e1d5e7;strokeColor=#9673a6;" vertex="1" parent="1">
          <mxGeometry x="200" y="785" width="120" height="60" as="geometry" />
        </mxCell>
        <mxCell id="ZLnotI8Yxob7CxgMWHyF-38" value="&lt;b&gt;xml file&lt;/b&gt;" style="rounded=1;whiteSpace=wrap;html=1;fillColor=#e1d5e7;strokeColor=#9673a6;" vertex="1" parent="1">
          <mxGeometry y="60" width="90" height="30" as="geometry" />
        </mxCell>
        <mxCell id="ZLnotI8Yxob7CxgMWHyF-40" value="" style="edgeStyle=orthogonalEdgeStyle;rounded=0;orthogonalLoop=1;jettySize=auto;html=1;" edge="1" parent="1" source="ZLnotI8Yxob7CxgMWHyF-39" target="ZLnotI8Yxob7CxgMWHyF-35">
          <mxGeometry relative="1" as="geometry" />
        </mxCell>
        <mxCell id="ZLnotI8Yxob7CxgMWHyF-39" value="&lt;pre style=&quot;background-color: #2b2b2b ; color: #a9b7c6 ; font-family: &amp;#34;jetbrains mono&amp;#34; , monospace ; font-size: 9.8pt&quot;&gt;&lt;span style=&quot;color: #e8bf6a&quot;&gt;&amp;lt;?&lt;/span&gt;&lt;span style=&quot;color: #bababa&quot;&gt;xml version&lt;/span&gt;&lt;span style=&quot;color: #6a8759&quot;&gt;=&quot;1.0&quot; &lt;/span&gt;&lt;span style=&quot;color: #bababa&quot;&gt;encoding&lt;/span&gt;&lt;span style=&quot;color: #6a8759&quot;&gt;=&quot;UTF-8&quot;&lt;/span&gt;&lt;span style=&quot;color: #e8bf6a&quot;&gt;?&amp;gt;&lt;br&gt;&lt;/span&gt;&lt;span style=&quot;color: #e8bf6a&quot;&gt;&amp;lt;!DOCTYPE &lt;/span&gt;&lt;span style=&quot;color: #bababa&quot;&gt;mapper&lt;br&gt;&lt;/span&gt;&lt;span style=&quot;color: #bababa&quot;&gt;  &lt;/span&gt;&lt;span style=&quot;color: #e8bf6a&quot;&gt;PUBLIC &lt;/span&gt;&lt;span style=&quot;color: #6a8759&quot;&gt;&quot;-//mybatis.org//DTD Mapper 3.0//EN&quot;&lt;br&gt;&lt;/span&gt;&lt;span style=&quot;color: #6a8759&quot;&gt;  &quot;http://mybatis.org/dtd/mybatis-3-mapper.dtd&quot;&lt;/span&gt;&lt;span style=&quot;color: #e8bf6a&quot;&gt;&amp;gt;&lt;/span&gt;&lt;span style=&quot;color: #808080&quot;&gt;&lt;br&gt;&lt;/span&gt;&lt;span style=&quot;color: #808080&quot;&gt;&lt;br&gt;&lt;/span&gt;&lt;span style=&quot;color: #e8bf6a&quot;&gt;&amp;lt;mapper &lt;/span&gt;&lt;span style=&quot;color: #bababa&quot;&gt;namespace&lt;/span&gt;&lt;span style=&quot;color: #6a8759&quot;&gt;=&quot;com.board.mapper.IndexMapper&quot;&lt;/span&gt;&lt;span style=&quot;color: #e8bf6a&quot;&gt;&amp;gt;&lt;/span&gt;&lt;span style=&quot;color: #808080&quot;&gt;&lt;br&gt;&lt;/span&gt;&lt;span style=&quot;color: #808080&quot;&gt;&lt;br&gt;&lt;/span&gt;&lt;span style=&quot;color: #808080&quot;&gt;   &lt;/span&gt;&lt;span style=&quot;color: #e8bf6a&quot;&gt;&amp;lt;update &lt;/span&gt;&lt;span style=&quot;color: #bababa&quot;&gt;id&lt;/span&gt;&lt;span style=&quot;color: #6a8759&quot;&gt;=&quot;initiateServer&quot;&lt;/span&gt;&lt;span style=&quot;color: #e8bf6a&quot;&gt;&amp;gt;&lt;br&gt;&lt;/span&gt;&lt;span style=&quot;color: #e8bf6a&quot;&gt;      &lt;/span&gt;update server set start_count = start_count + 1 where SERVER_NAME = &#39;simple&#39;&lt;br&gt;   &lt;span style=&quot;color: #e8bf6a&quot;&gt;&amp;lt;/update&amp;gt;&lt;br&gt;&lt;/span&gt;&lt;span style=&quot;color: #e8bf6a&quot;&gt;&lt;br&gt;&lt;/span&gt;&lt;span style=&quot;color: #e8bf6a&quot;&gt;&amp;lt;/mapper&amp;gt;&lt;/span&gt;&lt;/pre&gt;" style="rounded=0;whiteSpace=wrap;html=1;fillColor=#000000;align=left;" vertex="1" parent="1">
          <mxGeometry x="360" y="720" width="527" height="190" as="geometry" />
        </mxCell>
        <mxCell id="ZLnotI8Yxob7CxgMWHyF-45" value="" style="edgeStyle=orthogonalEdgeStyle;rounded=0;orthogonalLoop=1;jettySize=auto;html=1;" edge="1" parent="1" source="ZLnotI8Yxob7CxgMWHyF-44" target="ZLnotI8Yxob7CxgMWHyF-35">
          <mxGeometry relative="1" as="geometry" />
        </mxCell>
        <mxCell id="ZLnotI8Yxob7CxgMWHyF-44" value="&lt;span style=&quot;font-family: &amp;#34;helvetica&amp;#34;&quot;&gt;applicationContext&lt;/span&gt;" style="rounded=1;whiteSpace=wrap;html=1;fillColor=#e1d5e7;strokeColor=#9673a6;" vertex="1" parent="1">
          <mxGeometry y="785" width="120" height="60" as="geometry" />
        </mxCell>
      </root>
    </mxGraphModel>
  </diagram>
</mxfile>
